<?xml version="1.0" encoding="utf-8"?>
<svg xmlns="http://www.w3.org/2000/svg" style="margin: auto; background: none; display: block; shape-rendering: auto;" width="280" height="250" preserveAspectRatio="xMidYMid">
<style type="text/css">
  text {
    text-anchor: middle; font-size: 38px; opacity: 0;
  }
</style>
<g style="transform-origin:140px 125px;transform:scale(1)">
<g transform="translate(140,125)">
  <g transform="translate(0,0)"><g class="path" style="transform: scale(0.91); transform-origin: 3.74001px 0.735992px; animation: 1s linear 0s infinite normal forwards running breath-d337055b-dd15-4fb1-ad33-da7a45d202f5;"><path d="M8.40-6.07L8.40-6.07L8.40-6.07Q8.40-1.09 10.61 1.09L10.61 1.09L10.61 1.09Q12.81 3.28 15.62 3.28L15.62 3.28L15.62 3.28Q19.45 3.28 22.91 0.74L22.91 0.74L22.91 0.74Q26.38-1.81 28.35-5.65L28.35-5.65L28.35-5.65Q30.32-9.49 30.32-13.52L30.32-13.52L30.32-13.52Q30.32-17.56 28.52-19.85L28.52-19.85L28.52-19.85Q26.71-22.13 23.39-22.13L23.39-22.13L23.39-22.13Q19.40-22.13 17.14-19.36L17.14-19.36L17.14-19.36Q14.87-16.59 14.87-12.85L14.87-12.85L14.87-12.85Q14.87-11.21 15.37-10.00L15.37-10.00L15.37-10.00Q15.88-8.78 16.51-8.19L16.51-8.19L16.51-8.19Q17.14-7.60 17.93-7.22L17.93-7.22L17.93-7.22Q18.98-6.72 19.74-6.72L19.74-6.72L19.70-5.88L19.70-5.88Q18.98-5.88 17.87-6.38L17.87-6.38L17.87-6.38Q16.76-6.89 16.00-7.56L16.00-7.56L16.00-7.56Q15.25-8.23 14.64-9.62L14.64-9.62L14.64-9.62Q14.03-11.00 14.03-12.85L14.03-12.85L14.03-12.85Q14.03-16.93 16.53-19.93L16.53-19.93L16.53-19.93Q19.03-22.93 23.39-22.93L23.39-22.93L23.39-22.93Q27.05-22.93 29.11-20.41L29.11-20.41L29.11-20.41Q31.16-17.89 31.16-13.40L31.16-13.40L31.16-13.40Q31.16-10.25 29.93-7.08L29.93-7.08L29.93-7.08Q28.69-3.91 26.57-1.39L26.57-1.39L26.57-1.39Q24.44 1.13 21.27 2.73L21.27 2.73L21.27 2.73Q18.10 4.33 14.53 4.33L14.53 4.33L14.53 4.33Q9.45 4.33 6.59 1.24L6.59 1.24L6.59 1.24Q3.74-1.85 3.74-7.31L3.74-7.31L3.74-7.31Q3.74-14.83 8.53-20.08L8.53-20.08L8.53-20.08Q13.31-25.33 20.45-25.62L20.45-25.62L20.50-24.78L20.50-24.78Q17.77-24.70 15.60-23.42L15.60-23.42L15.60-23.42Q13.44-22.13 12.12-20.18L12.12-20.18L12.12-20.18Q10.79-18.23 9.91-15.62L9.91-15.62L9.91-15.62Q8.40-11.05 8.40-6.07" fill="#000000" stroke="none" stroke-width="none" transform="translate(-13.709991455078125,11.380993041992188)" style="fill: rgb(0, 0, 0);"></path></g></g>
</g>
</g>
<style id="breath-d337055b-dd15-4fb1-ad33-da7a45d202f5" data-anikit="">@keyframes breath-d337055b-dd15-4fb1-ad33-da7a45d202f5
{
  0% {
    animation-timing-function: cubic-bezier(0.9647,0.2413,-0.0705,0.7911);
    transform: scale(0.9099999999999999);
  }
  51% {
    animation-timing-function: cubic-bezier(0.9226,0.2631,-0.0308,0.7628);
    transform: scale(1.02994);
  }
  100% {
    transform: scale(0.9099999999999999);
  }
}</style></svg>
