<?xml version="1.0" encoding="utf-8"?>
<svg xmlns="http://www.w3.org/2000/svg" style="margin: auto; background: none; display: block; shape-rendering: auto;" width="280" height="250" preserveAspectRatio="xMidYMid">
<style type="text/css">
  text {
    text-anchor: middle; font-size: 38px; opacity: 0;
  }
</style>
<g style="transform-origin: 140px 125px; transform: scale(0.525);">
<g transform="translate(140,125)">
  <g transform="translate(0,0)"><g class="path" style="transform: scale(0.91); transform-origin: -3.59999px 11.7408px; animation: 1s linear 0s infinite normal forwards running breath-d337055b-dd15-4fb1-ad33-da7a45d202f5;"><path d="M39.52-30.48L39.52-30.48L39.52-30.48Q39.52-40 36.92-43.52L36.92-43.52L36.92-43.52Q34.32-47.04 29.20-47.04L29.20-47.04L29.20-47.04Q22.40-47.04 16.64-41.92L16.64-41.92L16.64-41.92Q13.76-39.36 12.04-35.08L12.04-35.08L12.04-35.08Q10.32-30.80 10.32-26.16L10.32-26.16L10.32-26.16Q10.32-21.52 11.64-18.40L11.64-18.40L11.64-18.40Q12.96-15.28 14.80-13.68L14.80-13.68L14.80-13.68Q18.72-10.24 21.60-9.60L21.60-9.60L22.96-9.36L22.40-7.84L22.40-7.84Q21.04-8.24 20.12-8.52L20.12-8.52L20.12-8.52Q19.20-8.80 16.88-10.16L16.88-10.16L16.88-10.16Q14.56-11.52 12.92-13.24L12.92-13.24L12.92-13.24Q11.28-14.96 9.96-18.20L9.96-18.20L9.96-18.20Q8.64-21.44 8.64-25.44L8.64-25.44L8.64-25.44Q8.64-35.76 14.60-42.24L14.60-42.24L14.60-42.24Q20.56-48.72 30.08-48.72L30.08-48.72L30.08-48.72Q47.68-48.72 47.68-32L47.68-32L47.68-32Q47.68-26.32 47.04-22.28L47.04-22.28L47.04-22.28Q46.40-18.24 46.24-17.84L46.24-17.84L46.24-17.84Q49.92-28.48 55.80-38.56L55.80-38.56L55.80-38.56Q61.68-48.64 68.80-55.48L68.80-55.48L68.80-55.48Q75.92-62.32 81.84-62.32L81.84-62.32L81.84-62.32Q86.32-62.32 88.16-60.36L88.16-60.36L88.16-60.36Q90-58.40 90-54.56L90-54.56L88.16-54.56L88.16-54.56Q87.76-58.08 86.28-59.24L86.28-59.24L86.28-59.24Q84.80-60.40 81.84-60.40L81.84-60.40L81.84-60.40Q76.96-60.40 70.60-54.32L70.60-54.32L70.60-54.32Q64.24-48.24 59.04-39.92L59.04-39.92L59.04-39.92Q53.84-31.60 50.20-22.68L50.20-22.68L50.20-22.68Q46.56-13.76 46.56-8.24L46.56-8.24L46.56-8.24Q46.56 0 49.32 3.28L49.32 3.28L49.32 3.28Q52.08 6.56 56.76 6.56L56.76 6.56L56.76 6.56Q61.44 6.56 65.52 4.40L65.52 4.40L65.52 6.24L65.52 6.24Q61.28 8.24 56.32 8.24L56.32 8.24L56.32 8.24Q38 8.24 38-10L38-10L38-10Q38-13.84 38.64-17.68L38.64-17.68L38.64-17.68Q31.20 0.08 22 10.96L22 10.96L22 10.96Q12.80 21.84 4.56 21.84L4.56 21.84L4.56 21.84Q0.08 21.84-1.76 19.88L-1.76 19.88L-1.76 19.88Q-3.60 17.92-3.60 14.08L-3.60 14.08L-1.76 14.08L-1.76 14.08Q-1.36 17.60 0.12 18.76L0.12 18.76L0.12 18.76Q1.60 19.92 4.56 19.92L4.56 19.92L4.56 19.92Q11.28 19.92 19.72 10.56L19.72 10.56L19.72 10.56Q28.16 1.20 33.84-10.80L33.84-10.80L33.84-10.80Q39.52-22.80 39.52-30.48" fill="#000000" stroke="none" stroke-width="none" transform="translate(-46.79998779296875,31.980801391601563)" style="fill: rgb(0, 0, 0);"></path></g></g>
</g>
</g>
<style id="breath-d337055b-dd15-4fb1-ad33-da7a45d202f5" data-anikit="">@keyframes breath-d337055b-dd15-4fb1-ad33-da7a45d202f5
{
  0% {
    animation-timing-function: cubic-bezier(0.9647,0.2413,-0.0705,0.7911);
    transform: scale(0.9099999999999999);
  }
  51% {
    animation-timing-function: cubic-bezier(0.9226,0.2631,-0.0308,0.7628);
    transform: scale(1.02994);
  }
  100% {
    transform: scale(0.9099999999999999);
  }
}</style></svg>
