<?xml version="1.0" encoding="utf-8"?><svg xml:space="preserve" viewBox="0 0 100 100" y="0px" x="0px" xmlns:xlink="http://www.w3.org/1999/xlink" xmlns="http://www.w3.org/2000/svg" id="圖層_1" version="1.1" width="47px" height="47px" style="width:100%;height:100%;background-size:initial;background-repeat-y:initial;background-repeat-x:initial;background-position-y:initial;background-position-x:initial;background-origin:initial;background-color:initial;background-clip:initial;background-attachment:initial;animation-play-state:paused" ><g class="ldl-scale" style="transform-origin:50% 50%;transform:rotate(0deg) scale(0.8, 0.8);animation-play-state:paused" ><g style="animation-play-state:paused" ><path d="M12.7,28h36.2C43.4,10.8,18.7,10.5,12.7,28z" stroke-miterlimit="10" stroke-linejoin="round" stroke-linecap="round" stroke-width="3.5" stroke="#333435" fill="#C33837" style="stroke:rgb(51, 52, 53);fill:rgb(195, 56, 55);animation-play-state:paused" ></path>
<path d="M51.2,28h36.2C81.3,10.7,56.7,11.2,51.2,28z" stroke-miterlimit="10" stroke-linejoin="round" stroke-linecap="round" stroke-width="3.5" stroke="#333435" fill="#C33837" style="stroke:rgb(51, 52, 53);fill:rgb(195, 56, 55);animation-play-state:paused" ></path></g>
<path d="M12,42.8h76c0.4-2.1,0.7-4.2,0.7-6.4c0-3.2-0.5-6-1.4-8.4H51.2c-0.7,2.2-1.2,4.7-1.2,7.4c0-2.7-0.4-5.2-1.1-7.4H12.7 c-0.8,2.5-1.3,5.3-1.3,8.4C11.3,38.6,11.6,40.7,12,42.8z" stroke-miterlimit="10" stroke-linejoin="round" stroke-linecap="round" stroke-width="3.5" stroke="#333435" fill="#F47E5F" style="stroke:rgb(51, 52, 53);fill:rgb(244, 126, 95);animation-play-state:paused" ></path>
<path d="M18.4,57.6h63.2c3-4.5,5.3-9.5,6.4-14.8H12C13.1,48.1,15.4,53.1,18.4,57.6z" stroke-miterlimit="10" stroke-linejoin="round" stroke-linecap="round" stroke-width="3.5" stroke="#333435" fill="#F5E169" style="stroke:rgb(51, 52, 53);fill:rgb(245, 225, 105);animation-play-state:paused" ></path>
<path d="M31.8,72.4h36.3c4.8-4.1,9.7-9.1,13.5-14.8H18.4C22.2,63.3,27.1,68.3,31.8,72.4z" stroke-miterlimit="10" stroke-linejoin="round" stroke-linecap="round" stroke-width="3.5" stroke="#333435" fill="#ACBD81" style="stroke:rgb(51, 52, 53);fill:rgb(172, 189, 129);animation-play-state:paused" ></path>
<path d="M50,85c0,0,8.9-4.6,18.2-12.6H31.8C41.1,80.4,50,85,50,85z" stroke-miterlimit="10" stroke-linejoin="round" stroke-linecap="round" stroke-width="3.5" stroke="#333435" fill="#77A4BD" style="stroke:rgb(51, 52, 53);fill:rgb(119, 164, 189);animation-play-state:paused" ></path>
<metadata xmlns:d="https://loading.io/stock/" style="animation-play-state:paused" ><d:name style="animation-play-state:paused" >lgbt</d:name>


<d:tags style="animation-play-state:paused" >heart,gay,lesbian,homosexual,transgender,bisexual,gender</d:tags>


<d:license style="animation-play-state:paused" >by</d:license>


<d:slug style="animation-play-state:paused" >ckfhuq</d:slug></metadata></g><!-- generated by https://loading.io/ --></svg>