<?xml version="1.0" encoding="utf-8"?><svg xml:space="preserve" viewBox="0 0 100 100" y="0px" x="0px" xmlns:xlink="http://www.w3.org/1999/xlink" xmlns="http://www.w3.org/2000/svg" id="圖層_1" version="1.1" width="47px" height="47px" style="width:100%;height:100%;background-size:initial;background-repeat-y:initial;background-repeat-x:initial;background-position-y:initial;background-position-x:initial;background-origin:initial;background-color:initial;background-clip:initial;background-attachment:initial;animation-play-state:paused" ><g class="ldl-scale" style="transform-origin:50% 50%;transform:rotate(0deg) scale(0.8, 0.8);animation-play-state:paused" ><path d="M87.5,36.8C87.5,64.5,50,83.9,50,83.9S12.5,64.5,12.5,36.8S50,9.4,50,35.8C50,9.9,87.5,9.2,87.5,36.8z" stroke-miterlimit="10" stroke-linejoin="round" stroke-linecap="round" stroke-width="3.5" stroke="#333435" fill="#C33837" style="stroke:rgb(51, 52, 53);fill:rgb(195, 56, 55);animation-play-state:paused" ></path>
<path d="M55.5,68.5c1.4,1.4,3.6,1.4,5,0l2.9-2.9c1.4-1.4,1.4-3.6,0-5l-19-19c-1.4-1.4-3.6-1.4-5,0l-2.9,2.9c-1.4,1.4-1.4,3.6,0,5L55.5,68.5z" stroke-miterlimit="10" stroke-linejoin="round" stroke-linecap="round" stroke-width="3.5" stroke="#333435" fill="#FFFFCB" style="stroke:rgb(51, 52, 53);fill:rgb(255, 255, 203);animation-play-state:paused" ></path>
<g style="animation-play-state:paused" ><path d="M36.5,65.6l2.9,2.9c1.4,1.4,3.6,1.4,5,0L50,63l-8-8l-5.5,5.5C35.1,62,35.1,64.2,36.5,65.6z" stroke-miterlimit="10" stroke-linejoin="round" stroke-linecap="round" stroke-width="3.5" stroke="#333435" fill="#FFFFCB" style="stroke:rgb(51, 52, 53);fill:rgb(255, 255, 203);animation-play-state:paused" ></path>
<path d="M63.5,44.5l-2.9-2.9c-1.4-1.4-3.6-1.4-5,0L50,47.1l8,8l5.5-5.5C64.9,48.2,64.9,45.9,63.5,44.5z" stroke-miterlimit="10" stroke-linejoin="round" stroke-linecap="round" stroke-width="3.5" stroke="#333435" fill="#FFFFCB" style="stroke:rgb(51, 52, 53);fill:rgb(255, 255, 203);animation-play-state:paused" ></path>
<rect height="11.3" width="11.3" stroke-miterlimit="10" stroke-linejoin="round" stroke-linecap="round" stroke-width="3.5" stroke="#333435" fill="#FAC090" transform="matrix(0.7071 -0.7071 0.7071 0.7071 -24.2893 51.4823)" y="49.4" x="44.4" style="stroke:rgb(51, 52, 53);fill:rgb(250, 192, 144);animation-play-state:paused" ></rect></g>
<metadata xmlns:d="https://loading.io/stock/" style="animation-play-state:paused" ><d:name style="animation-play-state:paused" >heart</d:name>


<d:tags style="animation-play-state:paused" >heart,heartbreak,dumped,throw away,first aid,fix,bandage,pain,sad</d:tags>


<d:license style="animation-play-state:paused" >by</d:license>


<d:slug style="animation-play-state:paused" >9uyc3g</d:slug></metadata></g><!-- generated by https://loading.io/ --></svg>