<?xml version="1.0" encoding="utf-8"?><svg xml:space="preserve" viewBox="0 0 100 100" y="0px" x="0px" xmlns:xlink="http://www.w3.org/1999/xlink" xmlns="http://www.w3.org/2000/svg" id="圖層_1" version="1.1" width="47px" height="47px" style="width:100%;height:100%;background-size:initial;background-repeat-y:initial;background-repeat-x:initial;background-position-y:initial;background-position-x:initial;background-origin:initial;background-color:initial;background-clip:initial;background-attachment:initial;animation-play-state:paused" ><g class="ldl-scale" style="transform-origin:50% 50%;transform:rotate(0deg) scale(0.8, 0.8);animation-play-state:paused" ><path d="M42.4,62l7-6.8l-7.8-5.9l7-6.8l-4.1-6.1l0,0C43.3,12,8.6,13.7,10,39.3c1.1,19.8,22.4,29.5,32.3,36.3l7.9-7.6L42.4,62z" stroke-miterlimit="10" stroke-linejoin="round" stroke-linecap="round" stroke-width="3.5" stroke="#333435" fill="#C33837" style="stroke:rgb(51, 52, 53);fill:rgb(195, 56, 55);animation-play-state:paused" ></path>
<path d="M55.3,36.5l3.4,6.6l-7.7,6l7.1,6.8l-7.7,6l7.1,6.8l-8.6,6.7c2.7,2.3,4.4,4.2,4.3,5.9c0.4-6.6,35.7-16.1,37-41.7S56.6,12.4,55.3,36.5 z" stroke-miterlimit="10" stroke-linejoin="round" stroke-linecap="round" stroke-width="3.5" stroke="#333435" fill="#C33837" style="stroke:rgb(51, 52, 53);fill:rgb(195, 56, 55);animation-play-state:paused" ></path>
<metadata xmlns:d="https://loading.io/stock/" style="animation-play-state:paused" ><d:name style="animation-play-state:paused" >broken heart</d:name>


<d:tags style="animation-play-state:paused" >heart,break,sad,dumped,throw away,cry,pain,trauma</d:tags>


<d:license style="animation-play-state:paused" >by</d:license>


<d:slug style="animation-play-state:paused" >a3jb1x</d:slug></metadata></g><!-- generated by https://loading.io/ --></svg>