<?xml version="1.0" encoding="utf-8"?><svg xml:space="preserve" viewBox="0 0 100 100" y="0px" x="0px" xmlns:xlink="http://www.w3.org/1999/xlink" xmlns="http://www.w3.org/2000/svg" id="圖層_1" version="1.1" width="47px" height="47px" style="width:100%;height:100%;background-size:initial;background-repeat-y:initial;background-repeat-x:initial;background-position-y:initial;background-position-x:initial;background-origin:initial;background-color:initial;background-clip:initial;background-attachment:initial;animation-play-state:paused" ><g class="ldl-scale" style="transform-origin:50% 50%;transform:rotate(0deg) scale(0.8, 0.8);animation-play-state:paused" ><circle r="37.5" cy="50" cx="50" stroke-miterlimit="10" stroke-width="3.5" stroke="#333435" fill="#F7B26A" style="stroke:rgb(51, 52, 53);fill:rgb(247, 178, 106);animation-play-state:paused" ></circle>
<path d="M49.1,25.5l-6.7,10.2c-0.2,0.3-0.5,0.5-0.9,0.5 l-12.2,0.7c-0.8,0-1.3,0.9-0.9,1.6l5.5,10.9c0.2,0.3,0.2,0.7,0,1l-5.5,10.9c-0.4,0.7,0.1,1.6,0.9,1.6l12.2,0.7 c0.4,0,0.7,0.2,0.9,0.5l6.7,10.2c0.4,0.7,1.4,0.7,1.9,0l6.7-10.2c0.2-0.3,0.5-0.5,0.9-0.5l12.2-0.7c0.8,0,1.3-0.9,0.9-1.6l-5.5-10.9 c-0.2-0.3-0.2-0.7,0-1l5.5-10.9c0.4-0.7-0.1-1.6-0.9-1.6l-12.2-0.7c-0.4,0-0.7-0.2-0.9-0.5l-6.7-10.2C50.5,24.8,49.5,24.8,49.1,25.5 z" stroke-miterlimit="10" stroke-width="3.5" stroke="#333435" fill="#F5E169" style="stroke:rgb(51, 52, 53);fill:rgb(245, 225, 105);animation-play-state:paused" ></path>
<metadata xmlns:d="https://loading.io/stock/" style="animation-play-state:paused" ><d:name style="animation-play-state:paused" >star of david</d:name>


<d:tags style="animation-play-state:paused" >star,coin,medal,credit,hexagram</d:tags>


<d:license style="animation-play-state:paused" >by</d:license>


<d:slug style="animation-play-state:paused" >tlhc17</d:slug></metadata></g><!-- generated by https://loading.io/ --></svg>