<?xml version="1.0" encoding="utf-8"?><svg xml:space="preserve" viewBox="0 0 100 100" y="0" x="0" xmlns="http://www.w3.org/2000/svg" id="圖層_1" version="1.1" width="47px" height="47px" xmlns:xlink="http://www.w3.org/1999/xlink" style="width:100%;height:100%;background-size:initial;background-repeat-y:initial;background-repeat-x:initial;background-position-y:initial;background-position-x:initial;background-origin:initial;background-color:initial;background-clip:initial;background-attachment:initial;animation-play-state:paused" ><g class="ldl-scale" style="transform-origin:50% 50%;transform:rotate(0deg) scale(0.8, 0.8);animation-play-state:paused" ><path stroke-miterlimit="10" stroke-linecap="round" stroke="#333" fill="none" d="M73.917 27.623c1.441 1.251-2.513 13.584-7.814 14.07 1.286 2.48-1.382 12.764-5.317 12.634-.017-.083.079-.165.158-.135" style="stroke:rgb(51, 51, 51);animation-play-state:paused" ></path>
<path fill="#333" d="M74.454 26.681a.502.502 0 0 0-.673.017c-3.15 3.018-6 6.603-8.471 10.652-2.236 3.642-4.194 7.796-5.821 12.35a80.89 80.89 0 0 0-3.373 13.175 86.237 86.237 0 0 0-1.242 13.483.499.499 0 0 0 .99.104l.245-1.229c.777-3.902 1.581-7.938 2.515-11.845 1.203-4.968 2.376-9.001 3.695-12.696a91.11 91.11 0 0 1 5.213-12.082c1.946-3.719 4.237-7.402 7.001-11.26a.5.5 0 0 0-.079-.669z" style="fill:rgb(51, 51, 51);animation-play-state:paused" ></path>
<path fill="#666" d="M58.144 46.292a23.131 23.131 0 0 0-10.27-2.397c-3.704 0-7.189.875-10.27 2.397-7.257 3.585-12.23 10.831-12.23 19.206v14.467c0 2.984 2.52 5.403 5.628 5.403h33.745c3.108 0 5.628-2.419 5.628-5.403V65.498c-.001-8.375-4.974-15.621-12.231-19.206z" style="fill:rgb(102, 102, 102);animation-play-state:paused" ></path>
<path fill="none" d="M30.615 85.349l-.021-.001h.001a.14.14 0 0 0 .02.001z" style="animation-play-state:paused" ></path>
<path fill="#c69c6d" d="M30.595 85.348a5.774 5.774 0 0 1-.227-.017c.075.009.151.012.227.017z" style="fill:rgb(198, 156, 109);animation-play-state:paused" ></path>
<path fill="#c69c6d" d="M30.596 85.348l.02.001-.02-.001z" style="fill:rgb(198, 156, 109);animation-play-state:paused" ></path>
<path fill="#f5e6c8" d="M30.796 85.358l.022.001a5.162 5.162 0 0 0-.022-.001z" style="fill:rgb(245, 230, 200);animation-play-state:paused" ></path>
<path fill="#f5e6c8" d="M30.796 85.358a5.48 5.48 0 0 1-.181-.009c.049.003.097.009.146.011l.035-.002z" style="fill:rgb(245, 230, 200);animation-play-state:paused" ></path>
<path fill="#f5e6c8" d="M31.002 85.368c-.062 0-.122-.007-.184-.009l-.022-.001c.069.002.136.01.206.01z" style="fill:rgb(245, 230, 200);animation-play-state:paused" ></path>
<path fill="#f5e6c8" d="M31.005 85.368c-.064.004-.124-.008-.187-.009.062.002.122.009.184.009h.003z" style="fill:rgb(245, 230, 200);animation-play-state:paused" ></path>
<path fill="#62a562" d="M40.116 45.233c-.863.307-1.702.659-2.512 1.059a22.5 22.5 0 0 0-6.988 5.368v33.689c.067.004.135.008.202.01.063.001.124.013.187.009h13.431V52.38c-2.249-1.356-3.894-3.991-4.32-7.147z" style="fill:rgb(98, 165, 98);animation-play-state:paused" ></path>
<path fill="#62a562" d="M58.144 46.292c-.81-.4-1.65-.753-2.512-1.059-.426 3.156-2.072 5.791-4.321 7.147v32.988h13.435c.13 0 .258-.01.386-.019V51.66a22.515 22.515 0 0 0-6.988-5.368z" style="fill:rgb(98, 165, 98);animation-play-state:paused" ></path>
<path fill="#2e6045" opacity=".76" d="M61.954 65.902l-2.848 1.34a1.51 1.51 0 0 1-1.284 0l-2.848-1.34a1.509 1.509 0 0 1-.866-1.364v-4.679h8.71v4.68a1.5 1.5 0 0 1-.864 1.363z" style="fill:rgb(46, 96, 69);animation-play-state:paused" ></path>
<path fill="#2e6045" d="M61.838 56.805h-6.747a.982.982 0 0 0-.982.982v2.071h8.711v-2.071a.982.982 0 0 0-.982-.982z" style="fill:rgb(46, 96, 69);animation-play-state:paused" ></path>
<path fill="#2e6045" opacity=".76" d="M33.6 65.875l2.9 1.365c.414.195.893.195 1.307 0l2.9-1.365c.538-.253.882-.794.882-1.389V59.72h-8.87v4.766c0 .595.343 1.136.881 1.389z" style="fill:rgb(46, 96, 69);animation-play-state:paused" ></path>
<path fill="#2e6045" d="M33.701 56.611h6.907c.542 0 .982.44.982.982v2.127h-8.871v-2.127c0-.542.439-.982.982-.982z" style="fill:rgb(46, 96, 69);animation-play-state:paused" ></path>
<path fill="#2e6045" opacity=".76" d="M61.954 79.902l-2.848 1.34a1.51 1.51 0 0 1-1.284 0l-2.848-1.34a1.509 1.509 0 0 1-.866-1.364v-4.679h8.71v4.68a1.5 1.5 0 0 1-.864 1.363z" style="fill:rgb(46, 96, 69);animation-play-state:paused" ></path>
<path fill="#2e6045" d="M61.838 70.805h-6.747a.982.982 0 0 0-.982.982v2.071h8.711v-2.071a.982.982 0 0 0-.982-.982z" style="fill:rgb(46, 96, 69);animation-play-state:paused" ></path>
<path fill="#2e6045" opacity=".76" d="M33.6 79.875l2.9 1.365c.414.195.893.195 1.307 0l2.9-1.365c.538-.253.882-.794.882-1.389V73.72h-8.87v4.766c0 .595.343 1.136.881 1.389z" style="fill:rgb(46, 96, 69);animation-play-state:paused" ></path>
<path fill="#2e6045" d="M33.701 70.611h6.907c.542 0 .982.44.982.982v2.127h-8.871v-2.127c0-.542.439-.982.982-.982z" style="fill:rgb(46, 96, 69);animation-play-state:paused" ></path>
<circle fill="#c7b299" r="14.513" cy="34.381" cx="47.874" style="fill:rgb(199, 178, 153);animation-play-state:paused" ></circle>
<path fill="#2e6045" d="M59.249 25.535v-5.624c0-1.974-1.341-3.686-3.248-4.195-5.418-1.446-10.836-1.446-16.253 0-1.907.509-3.248 2.221-3.248 4.195v5.624c2.658-1.87 6.761-3.073 11.375-3.073s8.716 1.203 11.374 3.073z" style="fill:rgb(46, 96, 69);animation-play-state:paused" ></path>
<path fill="#2e6045" opacity=".8" d="M57.239 28.798l2.01-3.263c-2.658-1.87-6.761-3.073-11.375-3.073s-8.717 1.203-11.375 3.073l2.01 3.263c.332.538 1.018.71 1.582.424 5.188-2.622 10.377-2.622 15.565 0 .565.286 1.251.114 1.583-.424z" style="fill:rgb(46, 96, 69);animation-play-state:paused" ></path>
<metadata xmlns:d="https://loading.io/stock/" style="animation-play-state:paused" ><d:name style="animation-play-state:paused" >fisherman</d:name>


<d:tags style="animation-play-state:paused" >sea,ocean,fishing rod,phisher,fisherman,people</d:tags>


<d:license style="animation-play-state:paused" >by</d:license>


<d:slug style="animation-play-state:paused" >1teqok</d:slug></metadata></g><!-- generated by https://loading.io/ --></svg>